<?xml version="1.0" encoding="UTF-8" standalone="no"?>
<svg
   viewBox="0 0 256 256"
   width="256"
   version="1.1"
   id="svg5"
   height="256"
   xmlns="http://www.w3.org/2000/svg"
   xmlns:svg="http://www.w3.org/2000/svg">
  <defs
     id="defs5" />
  <g
     id="g1"
     transform="matrix(0.2,0,0,0.2,-16.930663,-0.35359901)">
    <path
       fill="#FF1493"
       d="M 1129.9717,378.94635 C 872.73797,342.69019 433.13628,820.05456 263.76694,903.66846 c -5.36542,2.64862 -11.89904,4.07342 -17.87561,3.98559 -4.34872,-0.0639 -59.34466,-22.67464 -75.56398,-31.55182 22.9071,-16.36378 46.94285,-31.04563 70.69961,-46.12414 C 379.55465,741.93907 649.52749,496.55358 870.18591,400.9325 1031.5175,322.06553 1112.6885,310.70536 1195.0296,388.11603 Z"
       id="path1" />
    <path
       fill="#FF1493"
       d="m 1196.3936,392.05267 c 41.8074,21.3777 142.1552,443.55412 49.6689,532.54419 -21.5388,20.55648 -51.2895,24.43337 -79.8784,23.14649 -36.8186,-0.61716 -59.8712,-8.22243 -90.7482,-23.815 -22.0472,-10.1092 -43.7596,-20.94892 -65.5971,-31.51502 -1.5649,-0.75714 -3.065,-1.64795 -4.5953,-2.47668 22.8997,2.03085 73.5928,26.832 127.5901,16.80651 160.0803,-32.31386 0.6699,-518.84538 -2.2579,-524.09674 z"
       id="path2" />
    <path
       fill="#FF1493"
       d="m 431.24063,549.97754 c 32.96218,26.50953 47.35113,35.69476 48.47229,36.95227 -75.64547,20.04269 -113.33288,78.09437 -180.92377,193.52087 -2.97024,5.0412 -7.07679,9.37158 -10.57084,14.05553 -23.96095,16.54151 -48.15917,32.62175 -72.7555,48.37166 -12.57472,8.04755 -25.24461,15.94641 -37.8081,24.01123 -2.99858,1.92493 -5.74352,4.24493 -8.85103,6.56689 -3.48541,-4.51623 -4.49072,-9.73983 -2.53325,-13.95953 60.25416,-129.8894 161.30772,-268.74546 211.7613,-305.17455 15.27117,-11.02626 43.4196,-12.21733 53.2089,-4.34437 z"
       id="path3" />
    <path
       fill="#FF1493"
       d="m 1069.5009,924.94714 c 2.1272,1.01459 4.4027,2.31531 7.0032,3.8754 -4.1261,-0.2259 -153.42847,-53.11782 -279.49467,-125.35392 -72.31811,-41.43847 -148.92805,-88.70114 -215.74409,-139.22995 7.5802,-5.80798 14.54627,-10.992 21.32264,-16.4132 10.92523,5.88363 116.3129,109.87982 466.91392,277.12182 z"
       id="path4" />
    <path
       fill="#FF1493"
       d="m 545.39319,599.22473 c -7.29596,5.45758 -13.77655,10.27545 -20.21967,15.14301 -1.93097,1.4588 -3.57208,1.53686 -5.5777,-0.0737 -10.9808,-8.81812 -22.02441,-17.55866 -33.09533,-26.26368 -5.65405,-4.4458 -11.38339,-8.7973 -17.12644,-13.12811 -9.1907,-6.93066 -24.17807,-18.5189 -33.3917,-25.41917 l 49.96366,22.59721 c 20.25857,8.27497 40.41306,16.36499 59.44718,27.14447 z"
       id="path5" />
  </g>
</svg>
