<?xml version="1.0" encoding="UTF-8" standalone="no"?>
<!-- Created with Inkscape (http://www.inkscape.org/) -->

<svg
   version="1.1"
   id="svg1"
   width="1024px"
   height="1024px"
   viewBox="0 0 1024 1024"
   sodipodi:docname="wolf.svg"
   inkscape:version="1.3.2 (091e20e, 2023-11-25, custom)"
   inkscape:export-filename="wolf.png"
   inkscape:export-xdpi="131.25"
   inkscape:export-ydpi="131.25"
   xmlns:inkscape="http://www.inkscape.org/namespaces/inkscape"
   xmlns:sodipodi="http://sodipodi.sourceforge.net/DTD/sodipodi-0.dtd"
   xmlns="http://www.w3.org/2000/svg"
   xmlns:svg="http://www.w3.org/2000/svg">
  <defs
     id="defs1" />
  <sodipodi:namedview
     id="namedview1"
     pagecolor="#505050"
     bordercolor="#eeeeee"
     borderopacity="1"
     inkscape:showpageshadow="0"
     inkscape:pageopacity="0"
     inkscape:pagecheckerboard="0"
     inkscape:deskcolor="#505050"
     showguides="false"
     inkscape:zoom="1"
     inkscape:cx="293"
     inkscape:cy="282.5"
     inkscape:window-width="1920"
     inkscape:window-height="1051"
     inkscape:window-x="-9"
     inkscape:window-y="-9"
     inkscape:window-maximized="1"
     inkscape:current-layer="g1" />
  <g
     id="g1"
     inkscape:label="wolf"
     onmouseover="this.style.filter = 'invert(1)';"
     onmouseout="this.style.filter = 'invert(0)';">
    <rect
       style="fill:#000000;fill-opacity:1;fill-rule:evenodd;stroke:#d90076;stroke-width:0;stroke-linejoin:round;stroke-dashoffset:799.37;paint-order:fill markers stroke"
       id="rect4"
       width="1024"
       height="1024"
       x="0"
       y="0"
       inkscape:label="background" />
    <g
       id="g3"
       inkscape:label="wolf_drawing"
       transform="matrix(1.03125,0,0,1.03125,-29.554426,-18.132429)"
       onmouseover=""
       onmouseout="">
      <path
         style="fill:deeppink;fill-opacity:1"
         d="m 267.99668,311.34289 c -15.73999,9.29784 -39.34724,40.79107 -28.54449,38.07975 4.76324,-1.19549 0.65621,4.36365 -2.11078,9.12056 -7.69403,13.22729 -21.76072,38.06305 0.97251,28.54872 7.87038,-3.29392 8.99747,1.12128 4.74148,7.54665 -7.28262,10.99476 -13.34912,32.62159 -11.23137,48.69176 2.50438,19.00408 3.89875,21.67647 8.17597,15.66967 3.06079,-4.29848 4,-3.73685 4,2.39194 0,22.06016 19.65744,71.10407 37.72731,94.12696 5.24768,6.68607 6.31329,9.75516 8.60694,2.34208 l -1.01375,12.16914 c 0,6.90454 -5.20385,1.35201 -18.3205,-12.03011 -46.95151,-47.90176 -32.77977,-84.69223 -35.78255,-87.69509 -4.28395,-4.28392 -11.54445,34.3636 -15.75598,20.18187 -12.25731,-28.25896 -16.76962,-15.14673 -16.48511,-65.2388 0.27289,-48.04489 3.69726,-59.3658 6.84646,-69.07714 6.59437,-19.79089 24.27816,-40.26794 43.09749,-47.96529 z m 199.58658,311.8038 c -73.50828,-9.94551 -96.29783,-57.19783 -81.70899,-119.38789 2.78696,-11.88038 8.88778,-13.32205 10.36903,-3.34062 6.95451,46.86302 54.03658,98.90043 102.99302,114.67768 13.36026,4.30563 -10.57154,10.90311 -31.65306,8.05083 z M 346.49914,250.13351 c -4.84062,-1.74272 26.96705,-14.06732 27.657,-13.37737 4.46866,4.46866 5.79825,44.68475 -1.41552,34.97643 -7.21376,-9.70833 -15.62044,-17.77528 -26.24148,-21.59906 z"
         id="path3"
         sodipodi:nodetypes="cssssssssccsssssccssssssszs"
         inkscape:label="blue" />
      <path
         id="path4"
         style="fill:#ffffff;fill-opacity:1;fill-rule:evenodd;stroke:#d90076;stroke-width:0;stroke-linejoin:round;stroke-dashoffset:799.37;paint-order:fill markers stroke;stroke-linecap:round"
         d="m 310.86187,327.98851 c 15.19147,-4.00391 29.52267,2.75446 46.15224,13.84567 -8.33393,-13.85188 -12.29799,-23.28423 -24.10173,-25.64014 -11.80374,-2.35591 -20.62754,7.50958 -22.05051,11.79447 z m 445.40972,474.53821 c 7.81069,1.03169 5.54028,11.47255 2.35447,11.4276 l -536.34224,0.0568 c -9.03477,-0.0315 -6.1299,-13.13929 1.65108,-13.01109 V 801 c 3.92785,0.0647 8.06281,-1.65137 8.07487,-3.22525 C 232.09515,786.63298 246.99945,774 260.05906,774 c 8.29134,0 10.19261,-15.96815 8.037,-67.5 -3.44868,-82.44382 -11.9292,-120.30867 -35.81663,-159.91855 -10.17188,-16.86691 -12.26322,-17.00268 -10.03575,-2.46408 1.05065,6.1332 3.29791,14.21644 -4.52892,5.88263 -21.99316,-23.86593 -32.60495,-60.61154 -27.75444,-96.1057 1.74169,-12.74503 -2.09303,-11.12554 -15.2417,6.43691 -6.53365,8.7269 -7.08143,7.77298 -7.08107,-12.33121 4.1e-4,-23.03812 5.92884,-45.15696 16.85169,-62.87331 7.37645,-11.96424 5.16194,-11.79701 -12.03759,0.90903 C 165.9731,390.82171 166,390.81881 166,386.7299 c 0,-15.32452 15.61047,-45.73816 32.80867,-63.92061 7.78127,-8.22659 6.28723,-8.95043 -10.70564,-5.18674 -7.83132,1.73453 -8.1068,1.50377 -4.59871,-3.85222 11.27509,-17.21427 32.43958,-35.5958 49.25467,-42.77807 5.04146,-2.15337 5.32283,-2.47886 6.80243,-7.86927 5.51449,-20.09002 20.61133,-47.77186 26.68743,-48.93455 7.36861,-1.41001 30.28198,20.80792 37.3252,36.19234 l 2.57959,5.63456 c -3.65723,5.72854 -7.39349,12.15485 -13.12187,15.98466 -0.39243,0 -1.26903,-2.48232 -1.948,-5.51628 -2.65561,-11.86654 -15.8872,-31.22389 -20.72985,-30.32706 -8.39691,1.55507 -16.87939,40.10546 -12.83764,58.34334 2.91373,13.14783 2.88122,13.29176 -3.60144,15.94324 -18.81933,7.69735 -34.7627,24.94219 -41.35707,44.73308 -4.23982,12.72445 -3.73879,14.03628 3.04994,7.98558 14.10522,-12.57178 25.58152,-15.09567 13.24059,-2.9119 -15.4954,15.29807 -22.78985,32.69188 -22.83094,54.44098 -0.0204,10.80446 1.01819,12.14357 4.34025,5.59603 5.87299,-11.57526 16.10055,-22.41913 25.82312,-27.37921 4.94252,-2.52149 4.78379,-1.75435 -1.26051,6.0922 -17.46651,22.67457 -23.79973,58.47118 -15.3681,86.86356 1.91336,6.44296 2.8965,6.24596 5.91692,-1.18561 3.66602,-9.02005 11.75654,-21.7857 13.0117,-20.53055 3.00345,3.00354 -14.43293,45.95016 32.51926,93.85261 13.11665,13.38212 18,15.79373 18,8.88919 0,-12.38802 7.42611,-24.45329 27.93684,-45.3892 29.53895,-30.15131 39.98009,-51.99398 40.09643,-83.88099 -0.40513,-5.52995 1.18547,-5.07267 2.10503,-6.62855 5.1335,6.17104 9.47622,19.243 11.38158,34.25954 2.1111,16.63804 8.86746,-12.11732 8.92888,-38.00172 0.0248,-10.45491 0.4159,-17.12674 0.99268,-16.93448 4.21844,1.40615 12.97563,19.99601 14.69099,31.1862 1.65629,10.8048 1.83412,11.5 2.94168,11.5 6.78071,0 12.35184,-38.57153 8.42756,-58.34792 -3.22366,-9.45583 6.27281,-15.35756 10.93429,-12.24162 18.8091,14.06862 35.19866,19.30987 86.06407,27.5226 53.05271,8.56588 87.34533,33.05747 108.60764,77.56694 26.32138,55.09987 8.68099,118.32572 17.74689,158.32584 4.54946,20.07291 13.30921,41.17522 24.67069,59.43193 L 659,712.44827 v 87.27988 l 4.63957,0.63593 z M 439.69996,800 l 2.72156,-6.40358 c 5.40465,-12.71666 14.40959,-19.56711 25.74669,-19.58665 9.4737,-0.0163 9.27465,0.34675 18.09671,-33.00977 10.09441,-38.16736 5.5107,-49.64322 -32.76492,-82.03073 -18.46003,-15.62024 -32.61771,-30.23951 -38.92122,-40.19019 l -4.77675,-7.54055 C 382.93653,604.73965 377.72591,594.20528 377.16712,599 c -5.78522,49.6406 -17.89217,59.95759 -22.69778,96 -4.62466,34.68529 -8.41106,74.48498 -15.18202,104.59702 z m 154.97908,0.11344 c 0.64847,-0.0624 1.86787,-2.47592 2.70978,-5.36342 3.25919,-11.17816 11.03286,-19.32623 19.52485,-20.46525 6.71563,-0.90075 6.58633,-0.22959 6.58633,-34.18777 0,-46.99146 -2.38204,-50.94345 -51,-84.61304 -15.74837,-10.90628 -33.50665,-25.61503 -42.39345,-35.11344 -10.22064,-10.92407 -10.41992,-10.79495 -10.94256,7.0901 -0.5935,20.31008 0.70759,24.82455 14.65327,50.84321 8.04962,15.0183 2.85083,34.97047 -30.87191,118.48187 -0.95842,2.37345 -0.56494,2.75815 3.48346,3.40577 1.72103,0.27531 85.34563,0.20137 88.25023,-0.078 z M 308.93568,772.5775 c 8.2263,-9.91209 8.04649,-161.05767 -0.21126,-177.5775 -13.93011,54.41061 -10.33915,119.97814 -7.33613,177.56949 0.70942,1.84871 6.01507,1.85434 7.54739,0.008 z M 500.25,619.49308 c 2.92773,-1.1829 1.99735,-2.25263 -3.5,-4.02427 -48.95644,-15.77725 -95.29261,-67.69035 -102.24712,-114.55337 -1.48125,-9.98143 -3.60397,-9.03702 -6.39093,2.84336 -14.58884,62.19006 12.6203,106.01303 71.88805,115.78273 8.66085,1.42766 36.68003,1.39392 40.25,-0.0485 z M 768,755.92647 C 717.05662,751.53586 669.42001,703.90688 656.55569,644.5 c -3.38193,-15.6176 -3.79528,-21.66225 -4.54745,-66.5 -1.50601,-89.7754 -22.75939,-135.75049 -78.35928,-169.50599 -9.78892,-5.943 -9.62095,-5.27714 -4.54551,-18.01968 36.54979,-91.76292 147.84524,-126.07124 207.78107,-64.05132 8.64248,8.943 8.62726,9.07785 -0.80083,7.09459 -54.4736,-11.45887 -97.06991,37.31809 -79.52536,91.06435 8.53644,26.15067 30.33591,59.42492 55.23712,84.31279 14.99962,14.99158 14.90319,15.6564 -1.23435,8.50978 -14.33094,-6.34655 -14.15656,-6.92855 -4.17899,13.94751 12.80846,26.79913 22.47728,41.57078 36.97891,56.49496 L 790.5,595.19398 787,594.4854 c -8.63529,-1.74822 -22.59199,-9.58925 -33.17104,-18.63585 -8.43449,-7.21268 -8.9691,-6.92427 -5.28885,2.85325 7.55471,20.07102 22.74556,38.06413 38.77193,45.9242 8.01219,3.92954 7.26294,4.7812 -3.56204,4.04887 -17.33984,-1.17307 -32.34859,-7.01688 -49.25,-19.17602 -9.92755,-7.14204 -11.05393,-6.94975 -7.9608,1.359 9.21218,24.74576 36.86878,49.72369 62.2412,56.21286 13.04121,3.33538 14.51319,2.37839 4.95044,-3.2185 -5.77701,-3.38118 -19.73198,-15.18727 -19.72995,-16.6918 5e-4,-0.36378 5.513,-0.70074 12.25,-0.74882 36.19828,-0.2583 69.57765,-23.93367 74.95276,-53.16259 1.58824,-8.63655 3.89076,-6.96362 11.6656,8.47584 C 910.21418,675.88622 850.91991,763.07301 768,755.92647 Z M 285.77234,411.25 c 3.38306,-30.51154 26.57815,-43.83161 59.72766,-34.29936 14.5137,4.17346 25.47715,4.68447 32.01837,1.49238 4.22854,-2.06351 4.31421,-2.40166 2.3235,-9.17112 -3.0557,-10.39102 8.82598,-17.18139 20.15813,-11.52035 19.80477,9.89359 -18.95129,35.99214 -49.27924,33.18493 -28.27899,-2.61756 -40.81412,1.33274 -57.50337,18.12151 -8.20082,8.24974 -8.11388,8.22414 -7.44505,2.19201 z m 92.70184,-130.83195 -5.79636,-8.7114 1.80229,-8.87803 c 1.89548,-9.33705 1.71283,-24.03568 -0.32397,-26.07248 -0.68995,-0.68995 -3.21254,0.55792 -7.8368,3.87673 -16.2122,11.63538 -15.63966,11.44216 -23.54498,7.94605 -3.01098,-1.3316 -7.34197,-2.92395 -9.62443,-3.53855 -5.07152,-1.36562 -5.09196,-1.72866 -0.32029,-5.68868 13.84406,-11.4892 49.00681,-27.91524 52.42983,-24.49222 7.13015,7.13015 8.62662,46.16591 2.53555,66.14053 -2.78217,9.12365 -2.86645,9.11839 -9.32084,-0.58195 z"
         inkscape:label="white"
         sodipodi:nodetypes="ccsccccssssssccsssssssssssssccsssssssssssssssssccsssssccsssscccccssssscssccsssssssssssssccssssssssssssssssssssscssssssssssssssssssssssscsssssssss" />
    </g>
  </g>
</svg>
